#!OML:ASF X:\für Bonn\!DataBase\2005_08_10_Bjorn_Final\c3d\bjorn.ASF
:FULLY-SPECIFIED
:DEGREES
32
root 1.44747 19.1585 3.48982 -183.216 -18.1491 -179.578
lowerback 1.04057 1.53886 2.34656
upperback 7.26439 1.66005 -2.89169
thorax 7.16992 0.863667 -4.29158
lowerneck -10.1055 -6.18175 -4.90528
upperneck 22.1043 -9.80824 4.9325
head 9.07383 -4.83739 1.35619
rclavicle -7.61345e-014 -2.8625e-014
rhumerus -52.9893 -22.7306 -77.6825
rradius 26.6684
rwrist 25.7762
rhand -14.4864 12.2209
rfingers 7.12502
rthumb 11.6601 -17.4346
lclavicle -7.61345e-014 -2.8625e-014
lhumerus -7.10974 -30.7612 60.9134
lradius 86.8067
lwrist -16.6814
lhand -42.7774 -32.3716
lfingers 7.12502
lthumb -15.644 -2.98408
rfemur -15.7344 -3.26074 18.4082
rtibia 49.1213
rfoot -14.4429 -1.58539
rtoes -32.0929
lfemur -9.40599 -0.555335 -19.8316
ltibia 30.7819
lfoot -12.2591 -12.5107
ltoes -2.11621
33
root 1.44801 19.1605 3.51293 -183.534 -18.559 -179.677
lowerback 1.55305 1.55057 2.05274
upperback 7.47635 1.65357 -3.13642
thorax 7.10078 0.832408 -4.39625
lowerneck -10.4502 -6.39863 -4.73967
upperneck 21.6448 -10.0727 5.14425
head 8.99767 -4.90053 1.3642
rclavicle -1.11319e-014 2.3059e-014
rhumerus -53.0097 -21.9381 -78.924
rradius 26.851
rwrist 24.8143
rhand -14.805 12.287
rfingers 7.12502
rthumb 11.3529 -17.3857
lclavicle -1.11319e-014 2.3059e-014
lhumerus -5.95667 -29.7848 60.5914
lradius 88.3781
lwrist -16.6517
lhand -42.6694 -32.328
lfingers 7.12502
lthumb -15.5399 -2.93245
rfemur -16.9114 -2.50181 18.197
rtibia 51.3278
rfoot -12.6266 -2.29201
rtoes -32.3735
lfemur -8.98376 -0.787937 -19.985
ltibia 30.4821
lfoot -11.9817 -12.6921
ltoes -1.81943
34
root 1.45273 19.1694 3.53277 -183.841 -19.0433 -179.775
lowerback 2.01466 1.54905 1.6961
upperback 7.71561 1.62237 -3.36482
thorax 7.0857 0.783508 -4.44914
lowerneck -10.8268 -6.61055 -4.55449
upperneck 21.2159 -10.3394 5.35151
head 8.93724 -4.96549 1.36502
rclavicle 7.95139e-016 -3.18055e-015
rhumerus -52.9534 -21.2916 -80.0295
rradius 26.9061
rwrist 23.8895
rhand -14.9693 12.4129
rfingers 7.12502
rthumb 11.1943 -17.2685
lclavicle 7.95139e-016 -3.18055e-015
lhumerus -4.67306 -28.7476 60.349
lradius 89.8894
lwrist -16.6492
lhand -42.5011 -32.1769
lfingers 7.12502
lthumb -15.3779 -2.76882
rfemur -18.1814 -1.76124 17.9899
rtibia 53.6206
rfoot -10.6603 -3.06043
rtoes -32.1706
lfemur -8.52605 -0.94522 -20.1152
ltibia 30.0857
lfoot -11.6428 -12.9892
ltoes -1.48649
35
root 1.46053 19.1848 3.55051 -184.17 -19.5739 -179.838
lowerback 2.49686 1.53997 1.34836
upperback 7.94375 1.57564 -3.58929
thorax 7.0463 0.725955 -4.50371
lowerneck -11.1303 -6.82288 -4.3562
upperneck 20.7749 -10.6161 5.55195
head 8.85892 -5.04059 1.36244
rclavicle 4.45278e-014 -3.57812e-014
rhumerus -52.9132 -20.7191 -81.0649
rradius 26.8958
rwrist 23.0355
rhand -14.9921 12.5516
rfingers 7.12502
rthumb 11.1724 -17.1309
lclavicle 4.45278e-014 -3.57812e-014
lhumerus -3.32087 -27.7035 60.2048
lradius 91.3245
lwrist -16.5611
lhand -42.3075 -32.0125
lfingers 7.12502
lthumb -15.1913 -2.5902
rfemur -19.4951 -1.01638 17.8248
rtibia 56.0047
rfoot -8.6408 -3.84385
rtoes -31.6143
lfemur -8.02136 -1.1376 -20.2031
ltibia 29.6295
lfoot -11.2258 -13.3166
ltoes -1.09921
36
root 1.46987 19.1993 3.56902 -184.51 -20.1338 -179.846
lowerback 2.96904 1.51938 1.0234
upperback 8.1869 1.50644 -3.78231
thorax 7.02752 0.656848 -4.53856
lowerneck -11.4309 -7.01117 -4.24736
upperneck 20.366 -10.8733 5.84499
head 8.80104 -5.10761 1.4061
rclavicle -3.75703e-014 8.26944e-014
rhumerus -52.8285 -20.1348 -82.0531
rradius 26.8509
rwrist 22.2365
rhand -14.8811 12.6711
rfingers 7.12502
rthumb 11.2794 -17.0057
lclavicle -3.75703e-014 8.26944e-014
lhumerus -1.87812 -26.5823 60.2115
lradius 92.6647
lwrist -16.5071
lhand -42.2091 -31.883
lfingers 7.12502
lthumb -15.0966 -2.4535
rfemur -20.8629 -0.358661 17.7016
rtibia 58.4595
rfoot -6.47113 -4.42884
rtoes -30.8579
lfemur -7.52326 -1.31461 -20.2265
ltibia 29.1591
lfoot -10.8287 -13.6739
ltoes -0.779469
37
root 1.48315 19.2085 3.58817 -184.874 -20.7211 -179.796
lowerback 3.48492 1.50237 0.737368
upperback 8.41838 1.43625 -3.98391
thorax 6.97382 0.588553 -4.60457
lowerneck -11.6744 -7.18786 -4.07318
upperneck 19.952 -11.1422 6.16447
head 8.73035 -5.17866 1.44804
rclavicle 0 -4.13472e-014
rhumerus -52.7459 -19.7442 -82.9317
rradius 26.7055
rwrist 21.7083
rhand -14.5978 12.7284
rfingers 7.12502
rthumb 11.5527 -16.9332
lclavicle 0 -4.13472e-014
lhumerus -0.254517 -25.4919 60.2739
lradius 93.8339
lwrist -16.408
lhand -42.1826 -31.6861
lfingers 7.12502
lthumb -15.071 -2.25474
rfemur -22.2786 0.20521 17.6291
rtibia 60.9522
rfoot -4.31559 -4.82605
rtoes -29.87
lfemur -7.05088 -1.45553 -20.1738
ltibia 28.7108
lfoot -10.3715 -14.1001
ltoes -0.282609
38
root 1.49871 19.2156 3.60709 -185.241 -21.3124 -179.691
lowerback 3.98302 1.4853 0.490034
upperback 8.66223 1.36072 -4.16775
thorax 6.94517 0.519048 -4.6735
lowerneck -11.9106 -7.37288 -3.96863
upperneck 19.564 -11.4245 6.52245
head 8.67539 -5.26001 1.51111
rclavicle -7.71285e-014 6.99722e-014
rhumerus -52.6428 -19.4455 -83.7159
rradius 26.5535
rwrist 21.4755
rhand -14.244 12.7216
rfingers 7.12502
rthumb 11.8938 -16.9206
lclavicle -7.71285e-014 6.99722e-014
lhumerus 1.5112 -24.4008 60.4483
lradius 94.8767
lwrist -16.2589
lhand -42.2818 -31.4823
lfingers 7.12502
lthumb -15.1666 -2.05814
rfemur -23.7404 0.699733 17.5911
rtibia 63.4656
rfoot -2.21369 -5.01553
rtoes -27.5378
lfemur -6.63251 -1.57072 -20.0538
ltibia 28.3098
lfoot -9.91551 -14.5666
ltoes 0.237647
39
root 1.51622 19.2247 3.62656 -185.646 -21.9291 -179.546
lowerback 4.53026 1.44738 0.256491
upperback 8.90071 1.25142 -4.3282
thorax 6.88015 0.431716 -4.72557
lowerneck -12.0509 -7.52235 -3.94403
upperneck 19.1697 -11.6626 6.93984
head 8.60795 -5.3272 1.61477
rclavicle 6.44062e-014 -1.11319e-014
rhumerus -52.4728 -19.0348 -84.54
rradius 26.3526
rwrist 21.2537
rhand -13.8539 12.5602
rfingers 7.12502
rthumb 12.27 -17.0598
lclavicle 6.44062e-014 -1.11319e-014
lhumerus 3.3094 -23.3101 60.7715
lradius 95.8088
lwrist -16.074
lhand -42.4616 -31.2282
lfingers 7.12502
lthumb -15.3398 -1.8172
rfemur -25.2128 1.17113 17.5857
rtibia 65.9955
rfoot -0.235162 -5.05797
rtoes -23.413
lfemur -6.19583 -1.70518 -19.8938
ltibia 27.9256
lfoot -9.45668 -15.0434
ltoes 0.785894
